<?xml version="1.0" encoding="UTF-8" ?>
<!DOCTYPE svg PUBLIC "-//W3C//DTD SVG 1.1//EN" "http://www.w3.org/Graphics/SVG/1.1/DTD/svg11.dtd">
<svg width="600pt" height="600pt" viewBox="0 0 600 600" version="1.1" xmlns="http://www.w3.org/2000/svg">
<g id="#ff0000ff">
<path fill="#ff0000" opacity="1.00" d=" M 106.09 90.10 C 125.35 74.93 149.72 67.24 174.01 65.77 C 209.61 63.64 244.96 72.68 277.60 86.35 C 285.65 89.98 294.01 93.21 301.44 98.03 C 258.31 105.56 215.94 117.18 174.57 131.47 C 147.00 141.20 119.80 152.18 93.90 165.79 C 85.76 170.10 78.08 175.20 70.51 180.43 C 67.53 182.14 65.77 185.49 66.64 188.93 C 69.81 206.52 73.49 224.11 79.48 240.98 C 76.49 245.49 72.63 249.38 68.92 253.31 C 66.87 247.66 66.17 241.64 64.98 235.78 C 60.02 206.54 59.48 175.91 68.13 147.30 C 74.68 125.03 87.63 104.39 106.09 90.10 Z" />
<path fill="#ff0000" opacity="1.00" d=" M 90.41 316.67 C 95.53 315.04 100.89 314.28 106.26 314.24 C 107.56 323.40 111.28 331.96 113.56 340.86 C 112.12 344.09 109.43 346.55 107.18 349.22 C 100.72 338.85 95.71 327.65 90.41 316.67 Z" />
<path fill="#ff0000" opacity="1.00" d=" M 520.63 392.04 C 524.39 388.36 528.09 384.63 531.94 381.04 C 535.64 398.48 538.93 416.12 539.25 434.00 C 539.08 444.59 539.91 455.42 537.25 465.76 C 534.09 459.94 533.64 453.24 532.23 446.89 C 528.15 428.65 524.74 410.27 520.63 392.04 Z" />
<path fill="#ff0000" opacity="1.00" d=" M 488.57 445.71 C 490.61 446.84 492.56 448.14 494.43 449.55 C 500.55 454.48 507.04 458.92 513.26 463.72 C 518.35 467.30 522.99 471.48 528.26 474.80 C 530.55 476.55 533.48 475.50 536.07 475.34 C 532.55 494.32 524.89 512.69 513.05 528.01 C 503.32 540.43 490.92 550.82 476.73 557.78 C 456.85 567.97 434.16 571.47 412.01 571.10 C 371.89 569.84 333.14 556.48 297.73 538.23 C 292.66 535.27 287.17 532.99 282.49 529.39 C 289.86 527.63 297.47 527.16 304.88 525.57 C 343.39 518.45 381.96 507.44 415.33 486.36 C 430.99 476.39 446.69 465.22 456.78 449.28 C 463.67 457.11 470.27 465.23 476.23 473.78 C 478.73 477.08 484.75 474.89 485.00 470.88 C 486.33 462.51 486.90 454.02 488.57 445.71 Z" />
</g>
<g id="#000000ff">
<path fill="#000000" opacity="1.00" d=" M 174.57 131.47 C 215.94 117.18 258.31 105.56 301.44 98.03 C 303.84 97.98 306.24 98.28 308.62 98.61 C 322.30 100.88 335.63 104.77 349.09 108.07 C 362.93 111.86 376.82 115.50 390.54 119.73 C 421.42 129.20 451.53 140.99 481.14 153.85 C 503.92 163.74 526.58 174.52 546.58 189.41 C 549.29 191.48 552.86 194.00 552.10 197.94 C 551.97 200.70 549.42 202.14 547.37 203.45 C 544.76 223.22 539.33 242.44 534.56 261.76 C 530.72 277.23 525.98 292.46 521.91 307.87 C 528.72 304.50 535.13 300.41 541.82 296.83 C 554.54 288.38 565.31 277.24 578.45 269.39 C 582.33 266.86 587.67 270.58 587.41 275.00 C 586.97 279.93 584.72 284.48 583.18 289.14 C 574.83 311.11 564.81 332.49 552.63 352.61 C 546.47 362.57 540.10 372.59 531.94 381.04 C 528.09 384.63 524.39 388.36 520.63 392.04 C 524.74 410.27 528.15 428.65 532.23 446.89 C 533.64 453.24 534.09 459.94 537.25 465.76 C 538.60 468.95 537.84 472.48 536.07 475.34 C 533.48 475.50 530.55 476.55 528.26 474.80 C 522.99 471.48 518.35 467.30 513.26 463.72 C 507.04 458.92 500.55 454.48 494.43 449.55 C 492.56 448.14 490.61 446.84 488.57 445.71 C 486.90 454.02 486.33 462.51 485.00 470.88 C 484.75 474.89 478.73 477.08 476.23 473.78 C 470.27 465.23 463.67 457.11 456.78 449.28 C 446.69 465.22 430.99 476.39 415.33 486.36 C 381.96 507.44 343.39 518.45 304.88 525.57 C 297.47 527.16 289.86 527.63 282.49 529.39 C 268.45 531.64 254.17 532.34 239.97 533.14 C 227.79 533.80 215.59 533.10 203.44 532.30 C 192.10 531.13 180.23 529.87 170.36 523.64 C 163.08 519.17 158.24 510.61 159.25 501.97 C 160.20 492.72 165.95 484.98 170.86 477.40 C 162.59 472.65 155.37 466.39 147.74 460.75 C 150.24 467.37 153.90 473.47 157.23 479.70 C 159.15 483.09 157.17 488.25 153.02 488.55 C 150.07 489.08 147.55 487.25 145.21 485.76 C 135.38 479.28 125.35 473.09 115.76 466.25 C 113.19 464.48 111.05 461.35 111.97 458.11 C 112.74 454.56 117.30 452.39 120.38 454.59 C 125.76 457.91 130.69 461.95 136.22 465.05 C 132.41 456.04 127.98 447.29 123.95 438.37 C 114.18 444.96 105.08 452.49 95.98 459.96 C 84.36 469.62 73.07 479.69 62.57 490.56 C 61.28 491.80 60.01 493.29 58.19 493.73 C 57.18 493.11 56.11 492.24 56.24 490.92 C 55.41 479.82 58.01 468.90 60.08 458.08 C 66.58 429.68 77.08 402.26 90.46 376.40 C 95.59 367.09 100.44 357.49 107.18 349.22 C 109.43 346.55 112.12 344.09 113.56 340.86 C 111.28 331.96 107.56 323.40 106.26 314.24 C 100.89 314.28 95.53 315.04 90.41 316.67 C 85.88 318.03 81.23 318.98 76.76 320.55 C 58.37 326.75 41.93 337.33 25.55 347.51 C 20.17 350.73 15.26 354.67 9.84 357.82 C 7.01 359.66 2.75 358.74 1.25 355.63 C -0.24 353.23 0.56 350.24 2.23 348.17 C 8.85 339.03 14.65 329.34 20.92 319.97 C 31.61 304.05 42.39 288.18 53.73 272.73 C 58.68 266.17 63.41 259.41 68.92 253.31 C 72.63 249.38 76.49 245.49 79.48 240.98 C 73.49 224.11 69.81 206.52 66.64 188.93 C 65.77 185.49 67.53 182.14 70.51 180.43 C 78.08 175.20 85.76 170.10 93.90 165.79 C 119.80 152.18 147.00 141.20 174.57 131.47 M 305.47 108.98 C 306.31 110.88 307.25 112.82 307.28 114.95 C 307.52 148.75 313.27 182.16 317.64 215.58 C 320.48 232.98 322.32 250.52 325.33 267.90 C 327.47 283.02 330.62 297.97 333.27 313.01 C 334.75 310.89 336.54 309.01 338.02 306.90 C 336.68 285.88 333.71 265.00 332.18 244.00 C 331.84 239.57 329.44 234.44 332.47 230.47 C 335.23 226.94 341.34 228.63 341.90 233.06 C 345.33 250.28 351.00 266.92 356.00 283.72 C 362.98 307.34 370.90 330.68 379.61 353.72 C 403.57 350.28 427.79 349.54 451.95 349.52 C 461.40 349.55 470.90 348.87 480.32 349.84 C 485.40 350.33 487.67 357.44 483.76 360.71 C 480.49 363.75 475.87 361.49 471.99 361.62 C 461.66 361.42 451.33 361.95 441.00 361.82 C 421.21 361.61 401.35 362.45 381.65 360.03 C 383.26 364.37 384.60 368.90 387.13 372.83 C 388.22 374.64 389.49 376.66 388.93 378.88 C 388.37 382.41 384.40 384.60 381.07 383.34 C 377.94 381.38 376.11 377.84 372.76 376.16 C 358.19 368.52 341.96 364.22 325.57 363.14 C 324.78 377.14 327.59 390.97 327.55 404.95 C 327.61 416.35 327.61 427.79 326.06 439.10 C 325.22 444.01 324.14 449.08 321.31 453.28 C 318.88 456.88 314.35 459.18 309.99 458.27 C 304.54 457.23 300.19 453.44 296.50 449.52 C 291.38 444.12 288.27 437.24 285.47 430.46 C 284.64 427.65 279.72 426.38 278.08 429.07 C 271.98 437.23 265.95 445.51 258.69 452.71 C 257.30 454.04 255.82 455.43 253.92 455.99 C 250.18 455.28 246.50 452.39 242.81 455.00 C 242.69 463.23 243.94 471.63 241.75 479.73 C 240.84 482.85 238.44 485.93 235.03 486.38 C 231.20 486.67 228.24 483.75 225.70 481.31 C 217.84 473.21 211.89 463.54 206.02 453.97 C 199.98 444.12 195.34 433.49 191.21 422.72 C 187.69 416.30 182.68 410.61 176.94 406.07 C 175.13 406.65 173.48 407.64 171.81 408.53 C 166.96 411.15 162.04 413.65 157.45 416.72 C 160.58 422.89 163.53 429.14 166.67 435.30 C 172.70 447.51 179.53 459.32 185.42 471.60 C 186.93 474.21 186.71 477.49 184.72 479.80 C 179.63 486.18 174.38 492.75 171.81 500.62 C 170.43 504.38 171.61 508.76 174.54 511.45 C 178.46 514.96 183.67 516.47 188.70 517.60 C 198.42 519.58 208.36 520.46 218.27 520.60 C 225.71 521.14 233.20 520.86 240.65 520.65 C 263.99 519.54 287.31 517.12 310.24 512.51 C 349.90 505.15 389.13 491.79 422.18 468.18 C 432.63 460.52 442.94 452.01 449.79 440.85 C 447.60 436.40 445.42 431.94 443.51 427.36 C 443.63 426.39 443.87 424.45 443.99 423.48 C 446.03 424.06 448.07 424.86 449.52 426.49 C 458.98 435.56 466.83 446.11 475.30 456.08 C 476.25 448.78 477.01 441.45 478.24 434.19 C 478.91 430.26 483.36 429.40 486.71 429.57 C 484.03 423.19 481.76 416.66 479.20 410.24 C 476.49 402.46 473.28 394.84 470.85 386.97 C 470.04 384.95 471.73 383.28 472.90 381.87 C 481.01 372.91 488.47 363.38 495.76 353.74 C 498.33 350.26 501.46 346.96 502.90 342.81 C 505.20 342.47 507.54 342.63 509.86 342.49 C 513.76 348.15 514.10 355.22 515.49 361.74 C 516.20 362.26 516.92 362.78 517.65 363.31 C 517.95 367.68 518.56 372.02 519.45 376.31 C 523.77 372.99 526.86 368.43 530.22 364.20 C 539.33 351.86 547.39 338.66 553.97 324.80 C 560.11 313.95 564.94 302.36 569.67 290.83 C 554.79 303.53 538.09 313.98 520.43 322.37 C 516.22 324.49 511.49 326.07 508.43 329.88 C 507.87 329.66 506.73 329.21 506.16 328.98 C 506.40 327.45 505.63 325.96 505.42 324.47 C 504.05 320.70 506.37 317.09 507.34 313.54 C 512.17 297.78 516.69 281.94 520.94 266.02 C 526.42 246.89 530.89 227.47 536.62 208.41 C 537.38 205.36 539.25 202.41 539.12 199.25 C 533.46 194.65 527.13 190.93 520.93 187.10 C 502.67 176.70 483.45 168.12 464.12 159.90 C 440.70 150.20 417.00 141.11 392.84 133.41 C 364.07 124.03 334.50 117.42 305.47 108.98 M 258.36 119.18 C 217.97 128.46 178.58 141.70 140.13 157.09 C 118.52 165.99 97.13 175.82 77.73 188.99 C 79.89 204.39 82.32 219.75 84.68 235.13 C 90.31 229.55 96.03 224.07 102.24 219.14 C 109.95 213.70 117.54 207.72 126.52 204.49 C 133.81 201.83 141.73 201.97 149.33 202.84 C 162.45 204.44 174.97 208.94 187.08 214.05 C 206.94 222.89 225.56 234.26 243.40 246.61 C 270.11 265.18 295.62 285.46 320.00 306.99 C 324.01 310.47 327.70 314.37 332.14 317.32 C 320.93 285.60 314.72 252.39 308.39 219.41 C 303.95 193.83 299.49 168.21 296.84 142.36 C 296.16 134.78 295.99 127.15 295.07 119.60 C 295.35 116.81 295.18 114.01 295.34 111.22 C 282.93 113.46 270.58 116.05 258.36 119.18 M 129.62 216.49 C 123.46 218.94 118.05 222.86 112.69 226.68 C 97.10 238.29 84.21 253.06 72.33 268.33 C 56.59 288.77 42.02 310.09 27.90 331.67 C 39.85 323.62 52.86 317.33 65.77 311.03 C 71.54 309.78 76.94 307.29 82.69 305.98 C 101.04 301.63 120.11 300.46 138.87 302.19 C 152.73 303.55 166.66 304.75 180.25 307.94 C 185.24 309.58 185.30 317.32 180.54 319.33 C 174.68 320.05 168.70 320.17 162.98 321.77 C 147.91 326.05 135.07 335.94 124.24 346.97 C 127.91 354.51 131.56 362.05 135.11 369.64 C 140.70 381.58 146.29 393.51 152.07 405.36 C 157.18 402.65 162.17 399.71 167.22 396.89 C 163.06 392.36 158.54 388.17 154.52 383.50 C 151.70 380.18 148.50 376.84 147.71 372.37 C 151.18 372.96 153.86 375.35 156.58 377.39 C 162.93 382.23 168.99 387.43 175.04 392.65 C 194.16 383.22 213.75 374.68 233.92 367.74 C 256.58 359.70 280.09 353.74 304.07 351.49 C 307.37 351.01 311.31 351.96 314.16 350.11 C 318.43 343.31 322.19 336.14 325.82 328.98 C 323.78 326.42 321.12 324.47 318.72 322.29 C 293.73 299.71 267.43 278.59 239.95 259.12 C 239.48 258.87 238.54 258.35 238.07 258.09 C 235.72 255.98 233.02 254.33 230.41 252.58 C 207.42 237.71 183.49 223.02 156.54 216.66 C 147.76 214.82 138.26 213.19 129.62 216.49 M 350.26 305.81 C 350.32 316.00 352.34 326.02 353.65 336.09 C 353.89 338.79 354.21 342.00 352.06 344.07 C 350.54 346.04 347.68 346.02 345.50 345.43 C 341.80 343.14 338.75 339.95 335.22 337.41 C 332.82 341.96 330.09 346.35 328.11 351.11 C 342.07 351.71 355.71 355.40 368.69 360.40 C 366.63 352.52 363.35 345.05 360.73 337.35 C 356.95 326.94 353.40 316.44 350.26 305.81 M 108.24 314.62 C 112.23 321.16 115.17 328.24 118.59 335.08 C 125.02 329.27 131.61 323.53 139.13 319.15 C 141.41 317.81 143.72 316.52 145.89 315.00 C 133.37 314.27 120.71 312.50 108.24 314.62 M 104.14 376.09 C 95.01 392.56 87.13 409.73 80.39 427.33 C 74.62 442.75 69.68 458.49 64.90 474.24 C 69.85 469.41 74.41 464.19 79.50 459.50 C 82.33 456.66 85.62 454.23 88.03 451.00 C 90.11 449.83 91.98 448.33 93.79 446.79 C 109.15 433.61 125.50 421.59 142.75 411.01 C 137.85 399.92 132.81 388.89 128.05 377.73 C 124.75 369.94 121.54 362.10 118.17 354.34 C 112.81 361.12 108.43 368.60 104.14 376.09 M 493.46 372.46 C 488.80 377.50 484.20 382.63 479.03 387.16 C 484.63 402.38 490.69 417.47 494.86 433.16 C 495.30 436.27 498.20 437.80 500.46 439.51 C 507.69 444.70 514.52 450.48 522.03 455.28 C 517.72 433.94 513.25 412.62 508.77 391.31 C 507.29 384.19 504.77 377.25 503.88 370.03 C 504.86 366.59 505.37 363.09 504.37 359.58 C 500.36 363.54 497.30 368.34 493.46 372.46 M 271.25 369.52 C 241.70 376.94 212.97 387.65 185.72 401.27 C 195.18 409.62 205.58 416.81 215.73 424.28 C 226.46 431.67 237.01 439.63 248.92 445.00 C 255.38 439.39 260.26 432.23 265.51 425.54 C 280.33 405.81 293.75 385.02 306.20 363.73 C 294.42 364.70 282.79 367.03 271.25 369.52 M 288.09 415.02 C 287.41 416.16 286.00 417.49 287.00 418.90 C 291.16 427.41 294.36 436.90 301.48 443.50 C 304.32 445.81 307.73 448.67 311.65 447.96 C 314.97 439.03 315.05 429.32 315.46 419.92 C 316.08 404.85 314.98 389.81 314.08 374.78 C 305.47 388.22 297.25 401.93 288.09 415.02 M 134.07 431.19 C 145.57 442.62 157.76 453.32 169.06 464.97 C 168.10 462.64 167.01 460.38 165.81 458.18 C 159.48 446.43 153.79 434.34 148.02 422.31 C 143.20 424.99 138.61 428.07 134.07 431.19 M 198.40 423.85 C 204.02 438.40 212.39 451.75 222.08 463.93 C 225.23 467.72 228.29 471.67 232.31 474.60 C 233.24 465.43 231.74 456.30 231.63 447.15 C 220.02 440.17 209.30 431.85 198.40 423.85 Z" />
<path fill="#000000" opacity="1.00" d=" M 383.60 403.60 C 384.78 401.87 386.99 401.23 388.98 401.66 C 399.25 403.20 409.17 406.48 418.77 410.36 C 424.59 412.98 430.97 416.00 434.01 421.96 C 436.65 426.87 434.87 432.73 432.19 437.21 C 428.31 443.30 422.24 447.57 416.02 451.01 C 403.55 457.64 390.71 463.57 377.54 468.70 C 373.14 470.56 368.65 472.20 364.01 473.35 C 360.60 473.98 358.78 477.23 356.40 479.39 C 346.36 489.11 334.76 497.41 321.86 502.87 C 315.41 505.49 308.39 507.53 301.39 506.42 C 299.01 506.08 297.74 503.88 297.21 501.75 C 300.33 501.51 303.48 501.73 306.60 501.36 C 312.41 500.35 317.84 497.82 322.89 494.84 C 337.65 485.80 351.12 474.14 360.41 459.40 C 369.66 444.81 378.84 429.57 382.21 412.40 C 382.80 409.48 382.73 406.45 383.60 403.60 M 392.22 410.98 C 390.38 429.69 381.04 446.44 370.96 461.90 C 379.04 458.96 386.71 455.00 394.55 451.49 C 398.59 449.38 403.04 447.92 406.58 444.96 C 401.43 444.45 396.25 444.57 391.08 444.49 C 391.13 444.03 391.23 443.10 391.28 442.64 C 400.69 438.85 410.79 435.64 421.05 436.45 C 424.50 433.87 426.71 429.56 426.31 425.21 C 418.25 424.96 410.30 427.44 402.24 426.22 C 403.98 421.44 409.33 420.04 413.62 418.47 C 413.59 418.21 413.53 417.69 413.50 417.43 C 406.54 414.91 399.56 412.21 392.22 410.98 Z" />
</g>
<g id="#26a6f8ff">
<path fill="#26a6f8" opacity="1.00" d=" M 305.47 108.98 C 334.50 117.42 364.07 124.03 392.84 133.41 C 417.00 141.11 440.70 150.20 464.12 159.90 C 483.45 168.12 502.67 176.70 520.93 187.10 C 527.13 190.93 533.46 194.65 539.12 199.25 C 539.25 202.41 537.38 205.36 536.62 208.41 C 530.89 227.47 526.42 246.89 520.94 266.02 C 516.69 281.94 512.17 297.78 507.34 313.54 C 506.37 317.09 504.05 320.70 505.42 324.47 C 505.63 325.96 506.40 327.45 506.16 328.98 C 504.95 333.56 503.92 338.18 502.90 342.81 C 501.46 346.96 498.33 350.26 495.76 353.74 C 488.47 363.38 481.01 372.91 472.90 381.87 C 471.73 383.28 470.04 384.95 470.85 386.97 C 473.28 394.84 476.49 402.46 479.20 410.24 C 476.23 411.72 472.71 413.21 471.61 416.65 C 469.68 422.32 469.74 428.41 468.57 434.25 C 455.03 414.85 443.21 394.17 428.07 375.94 C 425.34 373.17 421.97 368.34 417.52 370.40 C 413.62 372.39 414.90 377.36 416.51 380.47 C 424.65 396.58 434.16 411.94 443.51 427.36 C 445.42 431.94 447.60 436.40 449.79 440.85 C 442.94 452.01 432.63 460.52 422.18 468.18 C 389.13 491.79 349.90 505.15 310.24 512.51 C 287.31 517.12 263.99 519.54 240.65 520.65 C 233.20 520.86 225.71 521.14 218.27 520.60 C 210.12 518.17 201.65 514.63 196.48 507.53 C 192.24 501.90 192.27 493.77 195.82 487.82 C 198.53 482.88 203.00 479.32 207.30 475.84 C 193.68 454.42 181.06 432.22 171.81 408.53 C 173.48 407.64 175.13 406.65 176.94 406.07 C 182.68 410.61 187.69 416.30 191.21 422.72 C 195.34 433.49 199.98 444.12 206.02 453.97 C 211.89 463.54 217.84 473.21 225.70 481.31 C 228.24 483.75 231.20 486.67 235.03 486.38 C 238.44 485.93 240.84 482.85 241.75 479.73 C 243.94 471.63 242.69 463.23 242.81 455.00 C 246.50 452.39 250.18 455.28 253.92 455.99 C 255.82 455.43 257.30 454.04 258.69 452.71 C 265.95 445.51 271.98 437.23 278.08 429.07 C 279.72 426.38 284.64 427.65 285.47 430.46 C 288.27 437.24 291.38 444.12 296.50 449.52 C 300.19 453.44 304.54 457.23 309.99 458.27 C 314.35 459.18 318.88 456.88 321.31 453.28 C 324.14 449.08 325.22 444.01 326.06 439.10 C 327.61 427.79 327.61 416.35 327.55 404.95 C 327.59 390.97 324.78 377.14 325.57 363.14 C 341.96 364.22 358.19 368.52 372.76 376.16 C 376.11 377.84 377.94 381.38 381.07 383.34 C 384.40 384.60 388.37 382.41 388.93 378.88 C 389.49 376.66 388.22 374.64 387.13 372.83 C 384.60 368.90 383.26 364.37 381.65 360.03 C 401.35 362.45 421.21 361.61 441.00 361.82 C 451.33 361.95 461.66 361.42 471.99 361.62 C 475.87 361.49 480.49 363.75 483.76 360.71 C 487.67 357.44 485.40 350.33 480.32 349.84 C 470.90 348.87 461.40 349.55 451.95 349.52 C 427.79 349.54 403.57 350.28 379.61 353.72 C 370.90 330.68 362.98 307.34 356.00 283.72 C 351.00 266.92 345.33 250.28 341.90 233.06 C 341.34 228.63 335.23 226.94 332.47 230.47 C 329.44 234.44 331.84 239.57 332.18 244.00 C 333.71 265.00 336.68 285.88 338.02 306.90 C 336.54 309.01 334.75 310.89 333.27 313.01 C 330.62 297.97 327.47 283.02 325.33 267.90 C 322.32 250.52 320.48 232.98 317.64 215.58 C 313.27 182.16 307.52 148.75 307.28 114.95 C 307.25 112.82 306.31 110.88 305.47 108.98 M 383.60 403.60 C 382.73 406.45 382.80 409.48 382.21 412.40 C 378.84 429.57 369.66 444.81 360.41 459.40 C 351.12 474.14 337.65 485.80 322.89 494.84 C 317.84 497.82 312.41 500.35 306.60 501.36 C 303.48 501.73 300.33 501.51 297.21 501.75 C 297.74 503.88 299.01 506.08 301.39 506.42 C 308.39 507.53 315.41 505.49 321.86 502.87 C 334.76 497.41 346.36 489.11 356.40 479.39 C 358.78 477.23 360.60 473.98 364.01 473.35 C 368.65 472.20 373.14 470.56 377.54 468.70 C 390.71 463.57 403.55 457.64 416.02 451.01 C 422.24 447.57 428.31 443.30 432.19 437.21 C 434.87 432.73 436.65 426.87 434.01 421.96 C 430.97 416.00 424.59 412.98 418.77 410.36 C 409.17 406.48 399.25 403.20 388.98 401.66 C 386.99 401.23 384.78 401.87 383.60 403.60 Z" />
<path fill="#26a6f8" opacity="1.00" d=" M 292.15 135.14 C 293.89 130.12 294.30 124.81 295.07 119.60 C 295.99 127.15 296.16 134.78 296.84 142.36 C 299.49 168.21 303.95 193.83 308.39 219.41 C 314.72 252.39 320.93 285.60 332.14 317.32 C 327.70 314.37 324.01 310.47 320.00 306.99 C 295.62 285.46 270.11 265.18 243.40 246.61 C 225.56 234.26 206.94 222.89 187.08 214.05 C 174.97 208.94 162.45 204.44 149.33 202.84 C 141.73 201.97 133.81 201.83 126.52 204.49 C 117.54 207.72 109.95 213.70 102.24 219.14 C 100.98 212.41 95.12 206.43 97.26 199.30 C 99.06 192.90 105.34 189.51 110.93 186.86 C 125.86 179.59 141.24 173.29 156.37 166.43 C 171.39 159.68 187.37 155.54 203.21 151.24 C 213.78 148.48 224.54 146.58 235.19 144.18 C 247.67 141.39 260.44 140.31 273.01 138.03 C 279.36 136.88 285.70 135.59 292.15 135.14 Z" />
<path fill="#26a6f8" opacity="1.00" d=" M 141.61 249.56 C 152.04 246.00 162.95 243.58 174.01 243.51 C 187.90 243.34 201.62 246.24 214.89 250.11 C 222.76 252.35 230.25 255.71 238.07 258.09 C 238.54 258.35 239.48 258.87 239.95 259.12 C 267.43 278.59 293.73 299.71 318.72 322.29 C 321.12 324.47 323.78 326.42 325.82 328.98 C 322.19 336.14 318.43 343.31 314.16 350.11 C 311.31 351.96 307.37 351.01 304.07 351.49 C 280.09 353.74 256.58 359.70 233.92 367.74 C 213.75 374.68 194.16 383.22 175.04 392.65 C 168.99 387.43 162.93 382.23 156.58 377.39 C 153.86 375.35 151.18 372.96 147.71 372.37 C 148.50 376.84 151.70 380.18 154.52 383.50 C 158.54 388.17 163.06 392.36 167.22 396.89 C 162.17 399.71 157.18 402.65 152.07 405.36 C 146.29 393.51 140.70 381.58 135.11 369.64 C 139.30 365.99 143.15 361.97 147.32 358.31 C 157.86 348.91 169.35 340.58 181.63 333.60 C 186.78 330.66 192.27 328.35 197.34 325.27 C 186.05 322.92 174.48 322.28 162.98 321.77 C 168.70 320.17 174.68 320.05 180.54 319.33 C 185.30 317.32 185.24 309.58 180.25 307.94 C 166.66 304.75 152.73 303.55 138.87 302.19 C 120.11 300.46 101.04 301.63 82.69 305.98 C 76.94 307.29 71.54 309.78 65.77 311.03 C 66.42 307.58 67.24 304.09 69.04 301.04 C 76.21 288.87 87.39 279.83 98.69 271.67 C 111.82 262.27 126.34 254.83 141.61 249.56 Z" />
<path fill="#26a6f8" opacity="1.00" d=" M 350.26 305.81 C 353.40 316.44 356.95 326.94 360.73 337.35 C 363.35 345.05 366.63 352.52 368.69 360.40 C 355.71 355.40 342.07 351.71 328.11 351.11 C 330.09 346.35 332.82 341.96 335.22 337.41 C 338.75 339.95 341.80 343.14 345.50 345.43 C 347.68 346.02 350.54 346.04 352.06 344.07 C 354.21 342.00 353.89 338.79 353.65 336.09 C 352.34 326.02 350.32 316.00 350.26 305.81 Z" />
<path fill="#26a6f8" opacity="1.00" d=" M 108.24 314.62 C 120.71 312.50 133.37 314.27 145.89 315.00 C 143.72 316.52 141.41 317.81 139.13 319.15 C 131.61 323.53 125.02 329.27 118.59 335.08 C 115.17 328.24 112.23 321.16 108.24 314.62 Z" />
<path fill="#26a6f8" opacity="1.00" d=" M 509.86 342.49 C 524.90 337.47 539.57 331.43 553.97 324.80 C 547.39 338.66 539.33 351.86 530.22 364.20 C 526.86 368.43 523.77 372.99 519.45 376.31 C 518.56 372.02 517.95 367.68 517.65 363.31 C 516.92 362.78 516.20 362.26 515.49 361.74 C 514.10 355.22 513.76 348.15 509.86 342.49 Z" />
<path fill="#26a6f8" opacity="1.00" d=" M 493.46 372.46 C 497.30 368.34 500.36 363.54 504.37 359.58 C 505.37 363.09 504.86 366.59 503.88 370.03 C 504.77 377.25 507.29 384.19 508.77 391.31 C 513.25 412.62 517.72 433.94 522.03 455.28 C 514.52 450.48 507.69 444.70 500.46 439.51 C 498.20 437.80 495.30 436.27 494.86 433.16 C 490.69 417.47 484.63 402.38 479.03 387.16 C 484.20 382.63 488.80 377.50 493.46 372.46 Z" />
<path fill="#26a6f8" opacity="1.00" d=" M 271.25 369.52 C 282.79 367.03 294.42 364.70 306.20 363.73 C 293.75 385.02 280.33 405.81 265.51 425.54 C 260.26 432.23 255.38 439.39 248.92 445.00 C 237.01 439.63 226.46 431.67 215.73 424.28 C 205.58 416.81 195.18 409.62 185.72 401.27 C 212.97 387.65 241.70 376.94 271.25 369.52 Z" />
<path fill="#26a6f8" opacity="1.00" d=" M 90.47 437.42 C 98.44 415.07 112.22 395.23 128.05 377.73 C 132.81 388.89 137.85 399.92 142.75 411.01 C 125.50 421.59 109.15 433.61 93.79 446.79 C 91.98 448.33 90.11 449.83 88.03 451.00 C 88.57 446.43 88.86 441.77 90.47 437.42 Z" />
<path fill="#26a6f8" opacity="1.00" d=" M 134.07 431.19 C 138.61 428.07 143.20 424.99 148.02 422.31 C 153.79 434.34 159.48 446.43 165.81 458.18 C 167.01 460.38 168.10 462.64 169.06 464.97 C 157.76 453.32 145.57 442.62 134.07 431.19 Z" />
</g>
<g id="#d3d3d3ff">
<path fill="#d3d3d3" opacity="1.00" d=" M 258.36 119.18 C 270.58 116.05 282.93 113.46 295.34 111.22 C 295.18 114.01 295.35 116.81 295.07 119.60 C 294.30 124.81 293.89 130.12 292.15 135.14 C 285.70 135.59 279.36 136.88 273.01 138.03 C 260.44 140.31 247.67 141.39 235.19 144.18 C 224.54 146.58 213.78 148.48 203.21 151.24 C 187.37 155.54 171.39 159.68 156.37 166.43 C 141.24 173.29 125.86 179.59 110.93 186.86 C 105.34 189.51 99.06 192.90 97.26 199.30 C 95.12 206.43 100.98 212.41 102.24 219.14 C 96.03 224.07 90.31 229.55 84.68 235.13 C 82.32 219.75 79.89 204.39 77.73 188.99 C 97.13 175.82 118.52 165.99 140.13 157.09 C 178.58 141.70 217.97 128.46 258.36 119.18 Z" />
<path fill="#d3d3d3" opacity="1.00" d=" M 129.62 216.49 C 138.26 213.19 147.76 214.82 156.54 216.66 C 183.49 223.02 207.42 237.71 230.41 252.58 C 233.02 254.33 235.72 255.98 238.07 258.09 C 230.25 255.71 222.76 252.35 214.89 250.11 C 201.62 246.24 187.90 243.34 174.01 243.51 C 162.95 243.58 152.04 246.00 141.61 249.56 C 126.34 254.83 111.82 262.27 98.69 271.67 C 87.39 279.83 76.21 288.87 69.04 301.04 C 67.24 304.09 66.42 307.58 65.77 311.03 C 52.86 317.33 39.85 323.62 27.90 331.67 C 42.02 310.09 56.59 288.77 72.33 268.33 C 84.21 253.06 97.10 238.29 112.69 226.68 C 118.05 222.86 123.46 218.94 129.62 216.49 Z" />
<path fill="#d3d3d3" opacity="1.00" d=" M 520.43 322.37 C 538.09 313.98 554.79 303.53 569.67 290.83 C 564.94 302.36 560.11 313.95 553.97 324.80 C 539.57 331.43 524.90 337.47 509.86 342.49 C 507.54 342.63 505.20 342.47 502.90 342.81 C 503.92 338.18 504.95 333.56 506.16 328.98 C 506.73 329.21 507.87 329.66 508.43 329.88 C 511.49 326.07 516.22 324.49 520.43 322.37 Z" />
<path fill="#d3d3d3" opacity="1.00" d=" M 124.24 346.97 C 135.07 335.94 147.91 326.05 162.98 321.77 C 174.48 322.28 186.05 322.92 197.34 325.27 C 192.27 328.35 186.78 330.66 181.63 333.60 C 169.35 340.58 157.86 348.91 147.32 358.31 C 143.15 361.97 139.30 365.99 135.11 369.64 C 131.56 362.05 127.91 354.51 124.24 346.97 Z" />
<path fill="#d3d3d3" opacity="1.00" d=" M 104.14 376.09 C 108.43 368.60 112.81 361.12 118.17 354.34 C 121.54 362.10 124.75 369.94 128.05 377.73 C 112.22 395.23 98.44 415.07 90.47 437.42 C 88.86 441.77 88.57 446.43 88.03 451.00 C 85.62 454.23 82.33 456.66 79.50 459.50 C 74.41 464.19 69.85 469.41 64.90 474.24 C 69.68 458.49 74.62 442.75 80.39 427.33 C 87.13 409.73 95.01 392.56 104.14 376.09 Z" />
<path fill="#d3d3d3" opacity="1.00" d=" M 417.52 370.40 C 421.97 368.34 425.34 373.17 428.07 375.94 C 443.21 394.17 455.03 414.85 468.57 434.25 C 469.74 428.41 469.68 422.32 471.61 416.65 C 472.71 413.21 476.23 411.72 479.20 410.24 C 481.76 416.66 484.03 423.19 486.71 429.57 C 483.36 429.40 478.91 430.26 478.24 434.19 C 477.01 441.45 476.25 448.78 475.30 456.08 C 466.83 446.11 458.98 435.56 449.52 426.49 C 448.07 424.86 446.03 424.06 443.99 423.48 C 443.87 424.45 443.63 426.39 443.51 427.36 C 434.16 411.94 424.65 396.58 416.51 380.47 C 414.90 377.36 413.62 372.39 417.52 370.40 Z" />
<path fill="#d3d3d3" opacity="1.00" d=" M 157.45 416.72 C 162.04 413.65 166.96 411.15 171.81 408.53 C 181.06 432.22 193.68 454.42 207.30 475.84 C 203.00 479.32 198.53 482.88 195.82 487.82 C 192.27 493.77 192.24 501.90 196.48 507.53 C 201.65 514.63 210.12 518.17 218.27 520.60 C 208.36 520.46 198.42 519.58 188.70 517.60 C 183.67 516.47 178.46 514.96 174.54 511.45 C 171.61 508.76 170.43 504.38 171.81 500.62 C 174.38 492.75 179.63 486.18 184.72 479.80 C 186.71 477.49 186.93 474.21 185.42 471.60 C 179.53 459.32 172.70 447.51 166.67 435.30 C 163.53 429.14 160.58 422.89 157.45 416.72 Z" />
<path fill="#d3d3d3" opacity="1.00" d=" M 392.22 410.98 C 399.56 412.21 406.54 414.91 413.50 417.43 C 413.53 417.69 413.59 418.21 413.62 418.47 C 409.33 420.04 403.98 421.44 402.24 426.22 C 410.30 427.44 418.25 424.96 426.31 425.21 C 426.71 429.56 424.50 433.87 421.05 436.45 C 410.79 435.64 400.69 438.85 391.28 442.64 C 391.23 443.10 391.13 444.03 391.08 444.49 C 396.25 444.57 401.43 444.45 406.58 444.96 C 403.04 447.92 398.59 449.38 394.55 451.49 C 386.71 455.00 379.04 458.96 370.96 461.90 C 381.04 446.44 390.38 429.69 392.22 410.98 Z" />
</g>
<g id="#ffffffff">
<path fill="#ffffff" opacity="1.00" d=" M 288.09 415.02 C 297.25 401.93 305.47 388.22 314.08 374.78 C 314.98 389.81 316.08 404.85 315.46 419.92 C 315.05 429.32 314.97 439.03 311.65 447.96 C 307.73 448.67 304.32 445.81 301.48 443.50 C 294.36 436.90 291.16 427.41 287.00 418.90 C 286.00 417.49 287.41 416.16 288.09 415.02 Z" />
<path fill="#ffffff" opacity="1.00" d=" M 198.40 423.85 C 209.30 431.85 220.02 440.17 231.63 447.15 C 231.74 456.30 233.24 465.43 232.31 474.60 C 228.29 471.67 225.23 467.72 222.08 463.93 C 212.39 451.75 204.02 438.40 198.40 423.85 Z" />
</g>
</svg>
